<?xml version="1.0" encoding="utf-8"?>
<!-- Generator: Adobe Illustrator 16.0.0, SVG Export Plug-In . SVG Version: 6.00 Build 0)  -->
<!DOCTYPE svg PUBLIC "-//W3C//DTD SVG 1.1//EN" "http://www.w3.org/Graphics/SVG/1.1/DTD/svg11.dtd">
<svg version="1.1" id="Layer_1" xmlns="http://www.w3.org/2000/svg" xmlns:xlink="http://www.w3.org/1999/xlink" x="0px" y="0px"
	 width="512px" height="512px" viewBox="0 0 512 512" enable-background="new 0 0 512 512" xml:space="preserve">
<g>
	<path fill="#E6E7E8" stroke="#E6E7E8" stroke-width="7" stroke-miterlimit="10" d="M469.346,434.913
		c4.539,7.861,1.846,17.915-6.015,22.453l-37.354,21.566c-7.861,4.539-17.914,1.846-22.452-6.014l-56.404-97.695
		c-4.538-7.86-1.845-17.914,6.016-22.452l37.354-21.568c7.862-4.538,17.914-1.843,22.453,6.018L469.346,434.913z"/>
	<path fill="none" stroke="#4B5A6D" stroke-width="3" stroke-miterlimit="10" d="M469.346,434.913
		c4.539,7.861,1.846,17.915-6.015,22.453l-37.354,21.566c-7.861,4.539-17.914,1.846-22.452-6.014l-56.404-97.695
		c-4.538-7.86-1.845-17.914,6.016-22.452l37.354-21.568c7.862-4.538,17.914-1.843,22.453,6.018L469.346,434.913z"/>
	<path fill="#394656" d="M465.492,434.571c4.359,7.551,2.054,17.046-5.152,21.208l-34.242,19.77
		c-7.207,4.159-16.584,1.409-20.942-6.141l-54.183-93.845c-4.36-7.551-2.052-17.045,5.155-21.206l34.243-19.771
		c7.205-4.159,16.582-1.411,20.94,6.141L465.492,434.571z"/>
	<path fill="#9FC9EB" d="M348.695,345.478c1.923-5.934,7.498-12.344,15.417-16.917c7.92-4.57,16.258-6.193,22.357-4.892l5.11-2.951
		c-5.567-6.176-18.896-5.744-31.248,1.386c-12.349,7.131-19.388,18.458-16.824,26.369L348.695,345.478z"/>
	<path fill="#9FC9EB" d="M343.363,328.231c1.187-5.509,5.481-11.182,11.941-14.912c6.462-3.73,13.521-4.613,18.883-2.886
		l4.172-2.407c-5.294-6.335-16.749-6.984-26.826-1.166c-10.078,5.816-15.242,16.063-12.403,23.814L343.363,328.231z"/>
	<path fill="#9FC9EB" d="M340.18,309.057c0.474-3.836,2.945-7.62,6.924-9.916c3.977-2.296,8.491-2.545,12.047-1.036l2.567-1.482
		c-3.757-4.765-11.192-5.834-17.396-2.254c-6.201,3.581-8.995,10.556-6.747,16.191L340.18,309.057z"/>
</g>
<rect x="79.615" y="13.321" fill="none" width="370.378" height="203.169"/>
<rect x="79.615" y="13.321" fill="#FFFFFF" stroke="#4B5A6D" stroke-width="7" stroke-miterlimit="10" width="370.378" height="203.169"/>
<polygon fill="#4B5A6D" points="322.224,216.491 207.383,216.491 198.647,241.551 330.255,241.551 "/>
<path fill="none" stroke="#4B5A6D" stroke-width="6" stroke-miterlimit="10" d="M171.619,484.756
	c0,7.811-6.332,14.144-14.143,14.144H65.177c-7.812,0-14.144-6.333-14.144-14.144V272.553c0-7.811,6.332-14.144,14.144-14.144
	h92.298c7.811,0,14.143,6.333,14.143,14.144V484.756z"/>
<circle fill="none" stroke="#4B5A6D" stroke-width="3" stroke-miterlimit="10" cx="111.326" cy="295.721" r="9.682"/>
<line fill="none" stroke="#4B5A6D" stroke-width="3" stroke-miterlimit="10" x1="68.406" y1="342.225" x2="154.247" y2="342.225"/>
<line fill="none" stroke="#4B5A6D" stroke-width="3" stroke-miterlimit="10" x1="68.406" y1="357.895" x2="154.247" y2="357.895"/>
<line fill="none" stroke="#4B5A6D" stroke-width="3" stroke-miterlimit="10" x1="68.406" y1="375.266" x2="154.247" y2="375.266"/>
<path fill="none" stroke="#4B5A6D" stroke-width="3" stroke-miterlimit="10" d="M154.247,406.082
	c0-7.811-6.332-14.143-14.143-14.143H82.549c-7.811,0-14.143,6.332-14.143,14.143v65.397c0,7.811,6.332,14.144,14.143,14.144h57.554
	c7.811,0,14.143-6.333,14.143-14.144V406.082z"/>
<path fill="none" stroke="#4B5A6D" stroke-width="3" stroke-miterlimit="10" d="M121.153,258.409
	c0-23.17,9.307-41.918,20.809-41.918"/>
</svg>
