<?xml version="1.0" encoding="utf-8"?>
<!-- Generator: Adobe Illustrator 16.0.0, SVG Export Plug-In . SVG Version: 6.00 Build 0)  -->
<!DOCTYPE svg PUBLIC "-//W3C//DTD SVG 1.1//EN" "http://www.w3.org/Graphics/SVG/1.1/DTD/svg11.dtd">
<svg version="1.1" id="Layer_1" xmlns="http://www.w3.org/2000/svg" xmlns:xlink="http://www.w3.org/1999/xlink" x="0px" y="0px"
	 width="512px" height="512px" viewBox="0 0 512 512" enable-background="new 0 0 512 512" xml:space="preserve">
<g>
	<path fill="#E6E7E8" stroke="#E6E7E8" stroke-width="7" stroke-miterlimit="10" d="M488.999,444.251
		c4.539,7.861,1.846,17.915-6.015,22.453l-37.354,21.566c-7.861,4.539-17.914,1.846-22.452-6.014l-56.404-97.695
		c-4.538-7.86-1.845-17.914,6.016-22.452l37.354-21.568c7.862-4.538,17.914-1.843,22.453,6.018L488.999,444.251z"/>
	<path fill="none" stroke="#4B5A6D" stroke-width="3" stroke-miterlimit="10" d="M488.999,444.251
		c4.539,7.861,1.846,17.915-6.015,22.453l-37.354,21.566c-7.861,4.539-17.914,1.846-22.452-6.014l-56.404-97.695
		c-4.538-7.86-1.845-17.914,6.016-22.452l37.354-21.568c7.862-4.538,17.914-1.843,22.453,6.018L488.999,444.251z"/>
	<path fill="#394656" d="M485.146,443.909c4.359,7.551,2.054,17.046-5.152,21.208l-34.242,19.77
		c-7.207,4.159-16.584,1.409-20.942-6.141l-54.183-93.845c-4.36-7.551-2.052-17.045,5.155-21.206l34.243-19.771
		c7.205-4.159,16.582-1.411,20.94,6.141L485.146,443.909z"/>
	<path fill="#9FC9EB" d="M368.349,354.815c1.923-5.934,7.498-12.344,15.417-16.917c7.92-4.57,16.258-6.193,22.357-4.892l5.11-2.951
		c-5.567-6.176-18.896-5.744-31.248,1.386c-12.349,7.131-19.388,18.458-16.824,26.369L368.349,354.815z"/>
	<path fill="#9FC9EB" d="M363.017,337.569c1.187-5.509,5.481-11.182,11.941-14.912c6.462-3.73,13.521-4.613,18.883-2.886
		l4.172-2.407c-5.294-6.335-16.749-6.984-26.826-1.166c-10.078,5.816-15.242,16.063-12.403,23.814L363.017,337.569z"/>
	<path fill="#9FC9EB" d="M359.833,318.395c0.474-3.836,2.945-7.62,6.924-9.916c3.977-2.296,8.491-2.545,12.047-1.036l2.567-1.482
		c-3.757-4.765-11.192-5.834-17.396-2.254c-6.201,3.581-8.995,10.556-6.747,16.191L359.833,318.395z"/>
</g>
<rect x="79.615" y="-6.905" fill="none" width="450.962" height="247.374"/>
<rect x="128.368" y="8.501" fill="#FFFFFF" stroke="#4B5A6D" stroke-width="7" stroke-miterlimit="10" width="269.645" height="147.913"/>
<polygon fill="#4B5A6D" points="304.995,156.415 221.386,156.415 215.026,174.66 310.841,174.66 "/>
<path fill="none" stroke="#4B5A6D" stroke-width="6" stroke-miterlimit="10" d="M139.248,486.402
	c0,6.652-5.394,12.047-12.046,12.047H48.585c-6.654,0-12.047-5.395-12.047-12.047V305.655c0-6.653,5.394-12.048,12.047-12.048
	h78.616c6.653,0,12.046,5.395,12.046,12.048V486.402z"/>
<circle fill="none" stroke="#4B5A6D" stroke-width="3" stroke-miterlimit="10" cx="87.893" cy="325.389" r="8.247"/>
<line fill="none" stroke="#4B5A6D" stroke-width="3" stroke-miterlimit="10" x1="51.335" y1="364.999" x2="124.451" y2="364.999"/>
<line fill="none" stroke="#4B5A6D" stroke-width="3" stroke-miterlimit="10" x1="51.335" y1="378.346" x2="124.451" y2="378.346"/>
<line fill="none" stroke="#4B5A6D" stroke-width="3" stroke-miterlimit="10" x1="51.335" y1="393.143" x2="124.451" y2="393.143"/>
<path fill="none" stroke="#4B5A6D" stroke-width="3" stroke-miterlimit="10" d="M124.451,419.391
	c0-6.652-5.394-12.047-12.047-12.047H63.381c-6.653,0-12.046,5.395-12.046,12.047v55.703c0,6.653,5.394,12.048,12.046,12.048h49.023
	c6.653,0,12.047-5.395,12.047-12.048V419.391z"/>
<g>
	<path fill="#642165" d="M215.808,241.257c0.537,1.168,1.042,2.369,1.516,3.6c0.463-1.242,0.98-2.463,1.547-3.663
		c0.536-1.169,1.104-2.337,1.673-3.441l15.914-31.386c0.285-0.537,0.568-0.948,0.886-1.263c0.283-0.284,0.63-0.505,1.01-0.663
		c0.378-0.158,0.787-0.221,1.262-0.221h12.63v62.077h-12.694v-35.743c0-1.736,0.095-3.599,0.254-5.62l-16.452,31.923
		c-0.506,1.01-1.2,1.734-2.052,2.271c-0.853,0.506-1.864,0.758-2.968,0.758h-1.958c-1.105,0-2.084-0.252-2.968-0.758
		c-0.852-0.504-1.547-1.262-2.052-2.271l-16.578-31.955c0.127,1.01,0.19,1.989,0.253,2.968c0.063,0.979,0.095,1.895,0.095,2.716
		v35.711h-12.694v-62.077h12.63c0.473,0,0.884,0.063,1.263,0.221c0.379,0.158,0.695,0.348,1.012,0.663
		c0.284,0.284,0.599,0.726,0.884,1.263l15.977,31.543C214.734,238.984,215.302,240.089,215.808,241.257L215.808,241.257z
		 M320.352,235.227c0,2.683-0.283,5.241-0.82,7.704c-0.566,2.463-1.355,4.768-2.396,6.916c-1.045,2.146-2.307,4.167-3.854,6
		c-1.516,1.864-3.254,3.473-5.18,4.893l15.725,17.178h-11.84c-1.705,0-3.254-0.221-4.643-0.633c-1.391-0.408-2.621-1.23-3.693-2.492
		l-7.705-8.652c-1.264,0.252-2.525,0.441-3.818,0.6c-1.297,0.125-2.623,0.221-3.982,0.221c-4.828,0-9.25-0.82-13.229-2.432
		c-3.979-1.609-7.389-3.85-10.197-6.727c-2.843-2.84-5.021-6.219-6.569-10.072c-1.545-3.852-2.336-8.05-2.336-12.535
		c0-4.482,0.791-8.651,2.336-12.535c1.548-3.852,3.727-7.23,6.569-10.073c2.842-2.841,6.219-5.083,10.197-6.694
		c3.979-1.61,8.367-2.431,13.229-2.431c4.832,0,9.223,0.82,13.201,2.463c3.979,1.642,7.355,3.883,10.168,6.725
		c2.809,2.842,4.988,6.189,6.535,10.072C319.596,226.574,320.352,230.743,320.352,235.227z M305.607,235.227
		c0-3.063-0.41-5.841-1.199-8.304c-0.791-2.463-1.926-4.547-3.443-6.252c-1.482-1.705-3.313-3-5.461-3.916
		c-2.146-0.916-4.611-1.357-7.387-1.357c-2.781,0-5.275,0.441-7.453,1.357c-2.18,0.916-4.01,2.21-5.496,3.916
		c-1.482,1.705-2.621,3.789-3.441,6.252c-0.789,2.463-1.199,5.209-1.199,8.304c0,3.094,0.41,5.873,1.199,8.336
		c0.793,2.462,1.928,4.546,3.441,6.252c1.486,1.705,3.316,2.999,5.496,3.914c2.178,0.884,4.641,1.359,7.453,1.359
		c2.744,0,5.207-0.442,7.387-1.359c2.148-0.883,3.979-2.209,5.461-3.914c1.486-1.706,2.621-3.79,3.443-6.252
		C305.229,241.099,305.607,238.321,305.607,235.227z M366.611,204.188v11.43h-16.828v50.678h-14.398v-50.678h-16.832v-11.43H366.611
		z M421.742,204.188v11.43h-17.461v50.678h-14.398v-50.678h-16.83v-11.43H421.742z"/>
	<path fill="#FFFFFF" d="M104.157,209.334v9.788h0.189c26.65,0,48.373,21.472,48.594,47.933h9.504
		C162.192,235.258,136.174,209.429,104.157,209.334z M104.157,229.542v9.789h0.189c15.441,0,28.04,12.41,28.26,27.725h9.503
		C141.889,246.404,124.965,229.638,104.157,229.542z M168.191,241.731v-19.735c-2.431-3.315-5.431-7.104-8.43-10.041
		c-3.346-3.315-7.263-6.315-11.052-8.937h-20.966C146.121,209.619,160.866,223.796,168.191,241.731z"/>
	<path fill="#642165" d="M104.314,239.331h-0.19v24.504c0,1.768,1.452,3.221,3.22,3.221h25.229
		C132.354,251.741,119.787,239.331,104.314,239.331z M104.314,219.123h-0.19v10.42c20.808,0.095,37.732,16.831,37.954,37.513h10.8
		C152.688,240.594,130.996,219.123,104.314,219.123z M168.191,263.866v-22.135c-7.325-17.935-22.07-32.113-40.416-38.712h-20.43
		c-1.768,0-3.22,1.453-3.22,3.222v3.126c32.018,0.094,58.068,25.892,58.257,57.718h2.589
		C166.77,267.056,168.191,265.634,168.191,263.866z M159.761,211.956c2.969,2.968,5.999,6.726,8.43,10.041v-15.788
		c0.006-1.755-1.413-3.184-3.169-3.189c-0.007,0-0.013,0-0.019,0h-16.262C152.531,205.64,156.445,208.64,159.761,211.956z"/>
</g>
</svg>
